<?xml version="1.0" encoding="utf-8"?>
<?xml-stylesheet type="text/css" href="../css/svg.css"?>
<svg version="1.1" xmlns="http://www.w3.org/2000/svg" xmlns:xlink="http://www.w3.org/1999/xlink" 
x="0px" y="0px" viewBox="0 0 300 300" enable-background="new 0 0 300 300" xml:space="preserve"
id="about-logo">
	<script xlink:href="../js/svg.js" />
	<script xlink:href="../js/about.js" />
	<g>
		<rect class="g10" y="220" width="300" height="80"/>
		<polyline class="g01" stroke-width="14" stroke-miterlimit="10" points="215,90 215,175 85,175 85,45 170,45 	"/>
	</g>
	<g>
		<path class="g50" d="M232.68,55.61l-7.07,7.07l-28.28-28.28l7.07-7.07L232.68,55.61z M197.32,55.61l7.07,7.07L215,52.07L207.93,45L197.32,55.61
			z M215,16.72l-7.07,7.07l10.61,10.61l7.07-7.07L215,16.72z M211.46,55.61l-7.07,7.07L215,73.28l7.07-7.07L211.46,55.61z M186.72,45
			l7.07,7.07l10.61-10.61l-7.07-7.07L186.72,45z M225.61,48.54l7.07,7.07L243.28,45l-7.07-7.07L225.61,48.54z M215,37.93l7.07,7.07
			l10.61-10.61l-7.07-7.07L215,37.93z"/>
		<g class="g50">
			<path d="M136.22,237.03h8.88v17.34h15.34v-17.34h8.84V283h-8.84v-20.16h-15.34V283h-8.88V237.03z"/>
			<path d="M176.6,237.03h8.69V283h-8.69V237.03z"/>
			<path d="M234.82,245.11l-6.12,5.83c-4.16-4.4-8.85-6.6-14.05-6.6c-4.39,0-8.09,1.5-11.1,4.5c-3.01,3-4.51,6.71-4.51,11.11
				c0,3.07,0.67,5.79,2,8.16c1.33,2.38,3.22,4.24,5.65,5.6s5.14,2.03,8.12,2.03c2.54,0,4.86-0.47,6.96-1.42
				c2.1-0.95,4.41-2.67,6.93-5.18l5.93,6.19c-3.4,3.31-6.6,5.61-9.63,6.89c-3.02,1.28-6.47,1.92-10.34,1.92
				c-7.15,0-13-2.27-17.55-6.8c-4.55-4.53-6.83-10.34-6.83-17.42c0-4.58,1.04-8.66,3.11-12.22c2.07-3.56,5.04-6.43,8.91-8.59
				c3.86-2.17,8.03-3.25,12.48-3.25c3.79,0,7.44,0.8,10.95,2.4C229.25,239.88,232.28,242.16,234.82,245.11z"/>
			<path d="M253.94,237.03h8.88L280.49,283h-9.09l-3.6-9.47h-18.76L245.3,283h-9.09L253.94,237.03z M258.43,249.22L252.26,265h12.3
				L258.43,249.22z"/>
		</g>
		<g class="g50">
			<path d="M36.75,235.99v38.92h9v9.74h-23.8v-48.66H36.75z"/>
			<path d="M83.51,264.48c0,4.89-0.14,8.35-0.4,10.39c-0.27,2.03-1.11,3.89-2.53,5.58c-1.42,1.68-3.33,2.98-5.75,3.88
				c-2.41,0.9-5.23,1.35-8.44,1.35c-3.05,0-5.78-0.43-8.21-1.28s-4.38-2.13-5.85-3.83s-2.36-3.56-2.64-5.56s-0.42-5.51-0.42-10.52
				v-8.33c0-4.89,0.13-8.35,0.4-10.38c0.27-2.03,1.11-3.89,2.53-5.58c1.42-1.68,3.33-2.98,5.75-3.88c2.41-0.9,5.23-1.35,8.44-1.35
				c3.05,0,5.78,0.43,8.21,1.28s4.38,2.13,5.85,3.83s2.36,3.56,2.64,5.56c0.28,2,0.42,5.51,0.42,10.52V264.48z M68.71,248.49
				c0-2.26-0.15-3.71-0.44-4.34c-0.29-0.63-0.9-0.95-1.81-0.95c-0.77,0-1.37,0.26-1.78,0.77c-0.41,0.51-0.62,2.02-0.62,4.52v22.72
				c0,2.83,0.13,4.57,0.4,5.23c0.27,0.66,0.9,0.99,1.88,0.99c1.01,0,1.65-0.38,1.93-1.14s0.42-2.58,0.42-5.44V248.49z"/>
			<path d="M121.83,250.72h-13.75v-3.61c0-1.68-0.18-2.75-0.53-3.22s-0.94-0.69-1.76-0.69c-0.89,0-1.56,0.31-2.02,0.93
				s-0.69,1.56-0.69,2.83c0,1.62,0.26,2.85,0.77,3.67c0.49,0.82,1.88,1.81,4.18,2.97c6.59,3.34,10.74,6.09,12.45,8.23
				c1.71,2.14,2.57,5.6,2.57,10.37c0,3.47-0.47,6.02-1.42,7.66c-0.95,1.64-2.78,3.02-5.5,4.13c-2.72,1.11-5.88,1.67-9.49,1.67
				c-3.96,0-7.34-0.64-10.14-1.92c-2.8-1.28-4.64-2.92-5.5-4.9c-0.87-1.98-1.3-4.8-1.3-8.45v-3.19h13.75v5.92
				c0,1.82,0.19,3,0.58,3.52c0.39,0.52,1.07,0.78,2.06,0.78s1.72-0.33,2.2-0.99c0.48-0.66,0.72-1.64,0.72-2.95
				c0-2.87-0.46-4.74-1.37-5.62c-0.94-0.88-3.25-2.35-6.93-4.42c-3.68-2.08-6.12-3.6-7.31-4.54c-1.2-0.94-2.19-2.24-2.97-3.91
				c-0.79-1.66-1.18-3.79-1.18-6.37c0-3.73,0.56-6.45,1.67-8.18c1.11-1.72,2.91-3.07,5.4-4.04c2.48-0.97,5.48-1.46,9-1.46
				c3.84,0,7.12,0.53,9.83,1.59c2.71,1.06,4.5,2.4,5.38,4.01c0.88,1.61,1.32,4.35,1.32,8.22V250.72z"/>
		</g>
		<g class="g50">
			<path d="M126.15,78.78h15.67v68.16h-15.67V78.78z M133.13,134.56h48.72v12.38h-48.72V134.56z"/>
		</g>
	</g>
</svg>
